<?xml version="1.0" encoding="UTF-8"?>
<svg id="Capa_2" data-name="Capa 2" xmlns="http://www.w3.org/2000/svg" viewBox="0 0 15.24 17.46">
  <defs>
    <style>
      .cls-1 {
        fill: none;
        stroke: #fff;
        stroke-linecap: round;
        stroke-linejoin: round;
        stroke-width: .8px;
      }
    </style>
  </defs>
  <g id="Bolsa_final" data-name="Bolsa final">
    <g>
      <g>
        <path class="cls-1" d="m10.98,6.29c-.12-1.4-.21-2.46-.22-2.5-.04-.2-.18-.31-.4-.31-.51,0-.9,0-1.42,0-.13,0-.15.12-.15.19,0,.35,0,.69,0,1.04,0,.18-.11.31-.26.3-.13,0-.25-.06-.25-.3,0-.35,0-.69,0-1.04,0-.06,0-.19-.12-.19-.78,0-3.56,0-4.34,0-.13,0-.12.12-.12.19,0,.35,0,.69,0,1.04,0,.24-.13.3-.25.3-.15,0-.26-.12-.26-.3,0-.35,0-.69,0-1.04,0-.06-.02-.19-.15-.19-.51,0-.9,0-1.42,0-.22,0-.36.11-.4.31-.02.11-.8,9.44-.8,9.44-.07.76.37,1.04.87,1.02h2.38"/>
        <path class="cls-1" d="m8.29,1.65c-.32-.52-.8-.87-1.37-1.08-.3-.11-.59-.17-.91-.16-.32,0-.66.05-.96.16-.57.22-1.05.57-1.37,1.08-.34.55-.5,1.26-.5,1.89,0,0,0,1.14,0,1.14,0,.18.11.33.26.33.13,0,.25-.15.25-.3v-1.04c0-.08,0-.16,0-.24.03-.44.07-.9.25-1.3.17-.38.47-.7.82-.92.19-.12.38-.19.58-.25.41-.11.84-.11,1.25,0,.2.05.4.13.58.25.35.22.65.54.82.92.18.4.22.86.25,1.3,0,.08,0,.16,0,.24v1.04c0,.15.12.3.25.3.15,0,.26-.14.26-.33,0,0,0-1.14,0-1.14,0-.63-.16-1.35-.5-1.89Z"/>
      </g>
      <g>
        <path class="cls-1" d="m11.74,7.3c-.16,0-.27.08-.27.24,0,.07,0,1.32,0,1.84,0,1.04-.54,1.76-1.48,2.11-.56.21-1.18.21-1.75,0-.94-.35-1.48-1.07-1.48-2.11,0-.53,0-1.78,0-1.84,0-.17-.1-.25-.27-.24-.15,0-.26.08-.26.25,0,.07,0,1.29,0,1.83,0,2.23,2.11,2.77,2.92,2.77.81,0,2.83-.54,2.83-2.77,0-.53,0-1.76,0-1.83,0-.16-.11-.25-.26-.25Z"/>
        <path class="cls-1" d="m14.83,16.03s-.79-9.33-.81-9.44c-.04-.2-.18-.31-.4-.31H4.72c-.22,0-.37.11-.4.31-.02.11-.81,9.44-.81,9.44-.07.76.37,1.04.88,1.02h9.56c.51.01.95-.27.88-1.02Z"/>
      </g>
    </g>
  </g>
</svg>