<?xml version="1.0" encoding="UTF-8"?>
<svg id="Capa_2" data-name="Capa 2" xmlns="http://www.w3.org/2000/svg" viewBox="0 0 4.05 4.64">
  <defs>
    <style>
      .cls-1 {
        fill: #fff;
      }
    </style>
  </defs>
  <g id="Bolsa_final" data-name="Bolsa final">
    <g>
      <g>
        <path class="cls-1" d="m.33,3.9c-.1,0-.18-.03-.24-.1-.05-.05-.1-.14-.08-.29C.1,2.38.21,1.02.22.99c.02-.1.1-.17.21-.17h.38s.08.02.11.05c0,0,0,0,0,0,.02-.02.07-.04.1-.04.21,0,.95,0,1.15,0h0s.08.02.1.04c0,0,0,0,0,0,.03-.03.06-.05.11-.05h.38c.11,0,.19.07.21.17,0,0,0,.02.06.67,0,.06-.04.11-.1.12-.05,0-.11-.04-.12-.1-.03-.36-.05-.63-.06-.66h-.31s0,.04,0,.04v.19c0,.05-.02.1-.06.14-.03.03-.07.05-.12.05h0c-.1,0-.17-.08-.17-.19v-.22c-.24,0-.76,0-1,0v.22c0,.11-.07.18-.17.19-.04,0-.09-.02-.12-.05-.04-.04-.06-.08-.06-.14v-.22h-.31c0,.05-.16,1.82-.21,2.49,0,.04,0,.1.03.13.03.03.07.03.09.03h.63c.06,0,.11.05.11.11s-.05.11-.11.11H.34s0,0-.01,0Z"/>
        <path class="cls-1" d="m.91,1.44s-.08-.02-.11-.05c-.04-.04-.06-.09-.06-.15v-.3c0-.21.06-.41.15-.56.09-.15.23-.26.42-.33.09-.03.19-.06.29-.05.08,0,.18.01.28.05.18.07.32.18.42.33h0c.09.15.15.35.15.56v.3c0,.06-.02.11-.06.15-.03.03-.07.05-.12.05-.09,0-.17-.09-.17-.19v-.28s0-.03,0-.05c0-.11-.02-.22-.06-.31-.03-.08-.1-.15-.18-.2-.04-.02-.08-.04-.12-.05-.09-.02-.19-.02-.28,0-.05.01-.09.03-.12.05-.08.05-.15.12-.18.2-.04.09-.05.2-.06.31,0,.02,0,.04,0,.05v.27c0,.1-.08.19-.17.19h0Z"/>
      </g>
      <g>
        <path class="cls-1" d="m2.44,3.33c-.23,0-.88-.15-.88-.84v-.49c0-.1.07-.17.17-.17h0c.06,0,.1.03.13.05.02.02.05.06.05.12v.49c0,.23.11.38.32.46.13.04.27.05.39,0,.21-.08.32-.23.32-.46v-.49c0-.06.03-.1.05-.12.02-.02.07-.06.13-.05h0c.1,0,.17.07.17.17v.49c0,.61-.53.84-.86.84Zm.68-1.29s0,0,0,0h0s0-.11,0-.11v.11Z"/>
        <path class="cls-1" d="m1.15,4.64c-.1,0-.18-.03-.24-.1-.05-.05-.1-.14-.08-.29.1-1.13.21-2.49.22-2.52.02-.1.1-.17.21-.17h2.36c.11,0,.19.07.21.17,0,.02.08.87.22,2.52h0c.01.15-.04.24-.08.29-.06.07-.16.09-.26.1H1.17s-.01,0-.02,0ZM3.62,1.77H1.25c0,.06-.16,1.83-.22,2.5,0,.04,0,.1.03.13.03.03.07.03.1.03h2.54s.07,0,.1-.03c.03-.03.03-.09.03-.13h0c-.06-.67-.21-2.44-.21-2.5Z"/>
      </g>
    </g>
  </g>
</svg>