<?xml version="1.0" encoding="UTF-8"?>
<svg id="Capa_2" data-name="Capa 2" xmlns="http://www.w3.org/2000/svg" viewBox="0 0 4.05 4.64">
  <defs>
    <style>
      .cls-1 {
        fill: none;
        stroke: #fff;
        stroke-linecap: round;
        stroke-linejoin: round;
        stroke-width: .21px;
      }
    </style>
  </defs>
  <g id="Bolsa_final" data-name="Bolsa final">
    <g>
      <g>
        <path class="cls-1" d="m2.92,1.67c-.03-.37-.06-.65-.06-.66,0-.05-.05-.08-.11-.08-.14,0-.24,0-.38,0-.03,0-.04.03-.04.05,0,.09,0,.18,0,.28,0,.05-.03.08-.07.08-.03,0-.07-.02-.07-.08,0-.09,0-.18,0-.28,0-.02,0-.05-.03-.05-.21,0-.95,0-1.15,0-.03,0-.03.03-.03.05,0,.09,0,.18,0,.28,0,.06-.03.08-.07.08-.04,0-.07-.03-.07-.08,0-.09,0-.18,0-.28,0-.02,0-.05-.04-.05-.14,0-.24,0-.38,0-.06,0-.1.03-.11.08,0,.03-.21,2.51-.21,2.51-.02.2.1.28.23.27h.63"/>
        <path class="cls-1" d="m2.2.44c-.09-.14-.21-.23-.36-.29-.08-.03-.16-.05-.24-.04-.08,0-.17.01-.25.04-.15.06-.28.15-.36.29-.09.15-.13.34-.13.5,0,0,0,.3,0,.3,0,.05.03.09.07.09.03,0,.07-.04.07-.08v-.28s0-.04,0-.06c0-.12.02-.24.07-.34.04-.1.13-.19.22-.25.05-.03.1-.05.15-.07.11-.03.22-.03.33,0,.05.01.11.03.15.07.09.06.17.14.22.25.05.11.06.23.07.34,0,.02,0,.04,0,.06v.28s.03.08.07.08c.04,0,.07-.04.07-.09,0,0,0-.3,0-.3,0-.17-.04-.36-.13-.5Z"/>
      </g>
      <g>
        <path class="cls-1" d="m3.12,1.94s-.07.02-.07.07c0,.02,0,.35,0,.49,0,.28-.14.47-.39.56-.15.06-.31.06-.46,0-.25-.09-.39-.28-.39-.56,0-.14,0-.47,0-.49,0-.04-.03-.07-.07-.07-.04,0-.07.02-.07.07,0,.02,0,.34,0,.49,0,.59.56.74.78.74.21,0,.75-.14.75-.74,0-.14,0-.47,0-.49,0-.04-.03-.07-.07-.07Z"/>
        <path class="cls-1" d="m3.94,4.26s-.21-2.48-.22-2.51c-.01-.05-.05-.08-.11-.08H1.25c-.06,0-.1.03-.11.08,0,.03-.22,2.51-.22,2.51-.02.2.1.28.23.27h2.54c.14,0,.25-.07.23-.27Z"/>
      </g>
    </g>
  </g>
</svg>