<?xml version="1.0" encoding="UTF-8"?>
<svg id="Capa_2" data-name="Capa 2" xmlns="http://www.w3.org/2000/svg" viewBox="0 0 1129.69 470.04">
  <defs>
    <style>
      .cls-1, .cls-2 {
        fill: #fff;
      }

      .cls-2 {
        stroke-miterlimit: 10;
        stroke-width: 1.52px;
      }

      .cls-2, .cls-3 {
        stroke: #fff;
      }

      .cls-3 {
        fill: none;
        stroke-linecap: round;
        stroke-linejoin: round;
        stroke-width: 4.55px;
      }
    </style>
  </defs>
  <g id="Logo_blanco" data-name="Logo blanco">
    <path id="Aguja" class="cls-3" d="m688.69,196.7c-2.08-5.37,3.96-10.13,7.96-12.46,9.54-5.56,21.02-6.3,31.6-8.6,12.29-2.67,24.41-6.03,36.47-9.57,25.06-7.35,50.03-14.97,75.07-22.41,2.4-.71,4.79-1.42,7.19-2.13,48.62-14.34,97.34-28.37,146.41-41.1,2.61-.68,5.68-1.97,8.38-1.23,2.42.66,4.05,2.69,4.66,5.07.5,1.96.19,4.13-.92,5.82-1.78,2.71-5.23,3.96-8.18,4.92-9.27,3.01-18.94,5.13-28.33,7.8-23.65,6.74-47.32,13.42-70.95,20.24-6.45,1.86-13.14,4.55-19.9,4.86-11.59.53-23.54,5.83-34.66,8.95-24.16,6.78-48.11,14.88-71.9,22.78-11.12,3.69-22.54,6.52-34.1,8.45-9.3,1.55-19.29,2.84-28.75,2.66-1.52-.03-3.23.6-3.52,2.25-.81,4.77,4.56,1.09,6.49,3.29,1.05,1.2.16,2.42-.88,3.16-2.88,2.07-6.34,2.96-9.86,2.69-3.62-.27-10.69-1.32-12.3-5.45Z"/>
    <g id="Esencia">
      <path class="cls-2" d="m509.79,327.7c-.66-.44-1.44-.15-2.32.88-3.09,7.37-6.96,14.7-11.6,21.99-4.64,7.29-9.83,13.85-15.58,19.67-5.75,5.82-12.01,10.53-18.78,14.14-6.78,3.61-13.92,5.34-21.44,5.19-5.3-.15-9.83-1.59-13.59-4.31-3.76-2.73-6.67-6.3-8.73-10.72-2.07-4.42-3.39-9.5-3.98-15.25-1.26-12.28.59-24.29,5.82-35.46,1.75-3.73,4.08-7.3,7.39-9.76,4.05-3.01,9.22-3.45,13.58-.85,11.18,6.67,9.7,24.05,7.47,34.84-2.88,13.94-11.28,26.22-22.36,34.99-12.4,9.82-27.44,14.67-43.14,15.4-14.48.67-28.61-2.06-42.97-3.19-.89-.07-1.15.58-1.78,1.47,0,.01,0,.04,0,.05-.65,1.05-1.12,1.29,1.5,1.86,6.36,1.38,12.9,1.56,19.32,2.41,9.43,1.24,18.99,1.48,28.47.73,11.55-.92,22.85-3.81,32.94-9.7,9.54-5.4,17.86-12.99,23.64-22.34,9.02-14.6,14.87-41.93,2.93-56.51-8.43-10.3-25.29-7.92-33.46,1.43-4.13,4.72-7.18,10.42-9.17,17.13-1.99,6.71-2.83,13.81-2.54,21.33.3,7.51,1.88,14.4,4.75,20.66,2.87,6.26,7.11,11.38,12.71,15.36,5.6,3.98,12.74,5.67,21.44,5.08,7.96-.44,15.43-2.54,22.43-6.3,7-3.76,13.44-8.58,19.34-14.47,5.89-5.89,11.19-12.6,15.91-20.11,4.71-7.51,8.84-15.32,12.38-23.43.29-1.03.11-1.77-.55-2.21Z"/>
      <path class="cls-2" d="m523.11,298.83c-.44,3.98-1.29,7.81-2.54,11.49-1.25,3.68-2.47,7.37-3.65,11.05,2.95,8.25,6.7,16.17,11.27,23.76,4.57,7.59,8.62,15.36,12.16,23.31,5.01-1.47,10.13-3.13,15.36-4.97,5.23-1.84,10.28-4.23,15.14-7.18,4.86-2.95,9.32-6.63,13.37-11.05,4.05-4.42,7.33-9.94,9.83-16.57.74-1.03,1.51-1.33,2.32-.88.81.44,1,1.18.55,2.21-2.95,6.78-6.56,12.45-10.83,17.02-4.27,4.57-8.92,8.4-13.92,11.49-5.01,3.09-10.17,5.6-15.47,7.51-5.3,1.92-10.39,3.54-15.25,4.86,1.47,5.01,2.5,10.02,3.09,15.03.59,5.01.66,9.8.22,14.36-.44,4.56-1.47,8.84-3.09,12.82-1.62,3.98-3.83,7.44-6.63,10.39-3.09,3.24-6.63,5.56-10.61,6.96-3.98,1.4-7.81,1.62-11.49.66-3.68-.96-6.85-3.28-9.5-6.96-2.65-3.68-4.12-8.99-4.42-15.91-.29-6.34.44-11.6,2.21-15.8,1.77-4.2,4.13-7.66,7.07-10.39,2.95-2.72,6.19-4.86,9.72-6.41,3.54-1.55,6.92-2.83,10.17-3.87-2.51-5.74-5.3-11.49-8.4-17.24-3.09-5.74-6.08-11.42-8.95-17.02-2.87-5.6-5.34-11.19-7.4-16.8-2.06-5.6-3.24-11.12-3.54-16.57-.44-7.51.7-13.37,3.43-17.57,2.73-4.2,5.67-6.63,8.84-7.29,3.17-.66,6,.59,8.51,3.76,2.5,3.17,3.32,8.44,2.43,15.8Zm6.41,75.58c-3.83,1.03-7.44,2.29-10.83,3.76-3.39,1.48-6.37,3.46-8.95,5.97s-4.6,5.71-6.08,9.61c-1.47,3.9-2.13,8.73-1.99,14.47.15,6.92,1.59,11.9,4.31,14.92,2.73,3.02,5.82,4.31,9.28,3.87,3.46-.44,6.85-2.58,10.17-6.41,3.32-3.83,5.56-9.06,6.74-15.69.88-5.01,1.07-10.17.55-15.47-.52-5.3-1.58-10.31-3.2-15.03Zm-14.36-57.02c.74-3.39,1.62-6.59,2.65-9.61,1.03-3.02,1.69-6.22,1.99-9.61.44-3.54.4-6.33-.11-8.4-.52-2.06-1.22-3.31-2.1-3.76-.88-.44-1.81.04-2.76,1.44-.96,1.4-1.73,3.87-2.32,7.4-.74,3.68-.81,7.44-.22,11.27.59,3.83,1.55,7.59,2.87,11.27Z"/>
      <path class="cls-2" d="m602.88,341.26c-.88,6.34-1.03,12.37-.44,18.12.59,5.75,1.91,10.83,3.98,15.25,2.06,4.42,4.97,7.99,8.73,10.72,3.76,2.72,8.29,4.16,13.59,4.31,7.51.14,14.66-1.59,21.44-5.19,6.77-3.61,13.04-8.32,18.78-14.14,5.75-5.82,10.94-12.38,15.58-19.67,4.64-7.29,8.51-14.62,11.6-21.99.89-1.03,1.66-1.33,2.32-.88s.85,1.18.55,2.21c-3.54,8.11-7.66,15.91-12.38,23.43-4.72,7.51-10.02,14.22-15.91,20.11-5.89,5.89-12.34,10.72-19.34,14.47-7,3.76-14.47,5.86-22.43,6.3-8.69.59-15.84-1.1-21.44-5.08-5.6-3.98-9.83-9.1-12.71-15.36-2.87-6.26-4.45-13.15-4.75-20.66-.29-7.51.55-14.62,2.54-21.33,1.99-6.7,5.04-12.41,9.17-17.13,4.12-4.71,9.13-7.37,15.03-7.96,4.12-.44,8.18.11,12.15,1.66,3.98,1.55,6.48,4.83,7.51,9.83.88,4.57.29,8.4-1.77,11.49-2.07,3.09-4.86,5.56-8.4,7.4-3.54,1.84-7.44,3.09-11.71,3.76-4.28.66-8.18.77-11.71.33Zm.44-3.32c2.65.15,5.86,0,9.61-.44,3.76-.44,7.29-1.36,10.61-2.76,3.31-1.4,5.97-3.39,7.96-5.97,1.99-2.58,2.61-5.86,1.88-9.83-.74-3.68-2.62-6.04-5.64-7.07-3.02-1.03-5.93-.96-8.73.22-2.06.88-3.91,2.21-5.53,3.98-1.62,1.77-3.09,3.83-4.42,6.19-1.33,2.36-2.47,4.9-3.43,7.63-.96,2.73-1.73,5.41-2.32,8.07Z"/>
      <path class="cls-2" d="m696.14,327.34c.29-1.47,1.1-2.5,2.43-3.09,1.33-.59,2.72-.77,4.2-.55,1.47.22,2.72.77,3.76,1.66,1.03.88,1.4,1.99,1.1,3.31-2.06,12.82-3.46,22.58-4.2,29.28-.74,6.71-1,11.24-.77,13.59.22,2.36.81,2.98,1.77,1.88.96-1.1,2.1-2.98,3.42-5.64,2.35-4.56,4.53-9.39,6.52-14.47,1.99-5.08,3.98-10.17,5.97-15.25,1.99-5.08,4.09-10.02,6.3-14.81,2.21-4.79,4.79-9.17,7.73-13.15,1.33-1.77,2.8-3.57,4.42-5.41,1.62-1.84,3.32-3.32,5.08-4.42s3.65-1.69,5.64-1.77c1.99-.07,4.09.7,6.3,2.32,2.8,2.06,4.79,5.6,5.97,10.61,1.18,5.01,1.84,10.72,1.99,17.13.15,6.41,0,13.11-.44,20.11-.44,7-.74,13.37-.88,19.12,0,6.93.51,12.3,1.55,16.13,1.03,3.83,2.5,6.26,4.42,7.29,1.91,1.03,4.23.81,6.96-.66,2.72-1.48,5.86-3.98,9.39-7.51,3.09-3.24,6.26-7,9.5-11.27,3.24-4.27,6.33-8.8,9.28-13.59,2.95-4.79,5.67-9.72,8.18-14.81,2.5-5.08,4.64-9.98,6.41-14.7.59-1.03,1.33-1.33,2.21-.88.88.44,1.1,1.18.66,2.21-1.77,4.86-3.9,9.87-6.41,15.03-2.51,5.16-5.27,10.24-8.29,15.25-3.02,5.01-6.19,9.76-9.5,14.25-3.32,4.5-6.6,8.44-9.83,11.82-1.77,1.91-3.76,3.72-5.97,5.41-2.21,1.69-4.53,3.06-6.96,4.09-2.43,1.03-4.94,1.47-7.51,1.33-2.58-.15-5.19-1.11-7.84-2.87-2.8-2.21-4.79-6.12-5.97-11.71-1.18-5.6-1.88-11.75-2.1-18.45-.22-6.7-.15-13.37.22-20,.37-6.63.7-12.01,1-16.13.15-3.98.03-7.99-.33-12.04-.37-4.05-1.14-7.22-2.32-9.5-1.18-2.28-2.8-3.24-4.86-2.87-2.07.37-4.72,2.98-7.96,7.84-2.65,3.98-5.08,8.4-7.29,13.26-2.21,4.86-4.35,9.91-6.41,15.14-2.06,5.23-4.09,10.42-6.08,15.58-1.99,5.16-4.09,9.95-6.3,14.36-.74,1.33-1.55,2.91-2.43,4.75-.88,1.84-1.88,3.61-2.98,5.3-1.11,1.69-2.29,3.09-3.54,4.2-1.25,1.11-2.54,1.66-3.87,1.66-2.06,0-3.57-1.29-4.53-3.87-.96-2.58-1.51-5.82-1.66-9.72-.14-3.9-.03-8.21.33-12.93.37-4.71.85-9.21,1.44-13.48.59-4.27,1.21-8.1,1.88-11.49.66-3.39,1.07-5.67,1.22-6.85Z"/>
      <path class="cls-2" d="m861.21,320.71c0,1.03-.48,1.66-1.44,1.88-.96.22-1.29-.18-1-1.22-1.33-3.68-3.09-6.33-5.3-7.96-2.21-1.62-4.57-2.28-7.07-1.99-4.27.59-7.84,2.98-10.72,7.18-2.87,4.2-5.05,9.32-6.52,15.36-1.47,6.04-2.14,12.41-1.99,19.12.15,6.71,1.25,12.86,3.32,18.45,2.06,5.6,5.12,10.13,9.17,13.59,4.05,3.46,9.24,4.9,15.58,4.31,7.51-.74,14.66-2.84,21.44-6.3,6.78-3.46,13.04-7.96,18.78-13.48,5.75-5.53,10.97-11.79,15.69-18.79,4.71-6.99,8.84-14.4,12.38-22.21.74-1.03,1.51-1.33,2.32-.88.81.44.99,1.18.55,2.21-3.54,8.11-7.77,15.88-12.71,23.32-4.94,7.44-10.46,14.03-16.57,19.78-6.12,5.74-12.67,10.46-19.67,14.14-7,3.68-14.33,5.82-21.99,6.41-9.58.88-17.35-.74-23.32-4.86-5.97-4.13-10.46-9.5-13.48-16.13-3.02-6.63-4.57-13.88-4.64-21.77-.07-7.88,1.1-15.17,3.54-21.88,2.43-6.7,6-12.23,10.72-16.57,4.71-4.34,10.39-6.22,17.02-5.64,3.39.3,6.52,1.51,9.39,3.65,2.87,2.14,5.04,5.56,6.52,10.28Z"/>
      <path class="cls-2" d="m924.64,310.54c.44-2.5,1.4-4.09,2.87-4.75,1.47-.66,2.98-.7,4.53-.11,1.55.59,2.87,1.7,3.98,3.32,1.1,1.62,1.58,3.46,1.44,5.53-.44,2.06-.92,4.79-1.44,8.18-.52,3.39-.96,7.22-1.33,11.49-.37,4.28-.66,8.81-.88,13.59-.22,4.79-.33,9.61-.33,14.47,0,2.95.22,6.37.66,10.28.44,3.91,1.14,7.77,2.1,11.6.96,3.83,2.17,7.33,3.65,10.5,1.47,3.17,3.39,5.45,5.75,6.85,2.35,1.4,5.12,1.66,8.29.77,3.17-.88,6.81-3.54,10.94-7.96,3.98-4.13,7.99-8.88,12.04-14.25,4.05-5.38,7.88-10.97,11.49-16.8,3.61-5.82,6.96-11.71,10.06-17.68,3.09-5.97,5.75-11.6,7.96-16.91.44-1.03,1.1-1.21,1.99-.55s1.18,1.29.88,1.88c-2.21,5.3-4.9,11.02-8.07,17.13-3.17,6.12-6.56,12.23-10.17,18.34-3.61,6.12-7.44,11.97-11.49,17.57-4.05,5.6-8.14,10.46-12.27,14.59-5.45,5.6-10.31,9.2-14.58,10.83-4.28,1.62-8.07,1.8-11.38.55-3.32-1.25-6.15-3.61-8.51-7.07-2.36-3.46-4.31-7.44-5.86-11.93-1.55-4.5-2.73-9.21-3.54-14.14-.81-4.93-1.36-9.54-1.66-13.81-.29-5.3-.4-10.61-.33-15.91.08-5.3.26-10.24.55-14.81.3-4.57.7-8.65,1.21-12.27.51-3.61,1-6.44,1.44-8.51Zm10.61-36.68c2.06,0,3.79.7,5.19,2.1,1.4,1.4,2.1,3.43,2.1,6.08,0,2.36-.77,4.27-2.32,5.74-1.55,1.48-3.35,2.21-5.42,2.21-2.21-.15-4.05-1-5.52-2.54-1.48-1.55-2.21-3.57-2.21-6.08,0-2.65.81-4.56,2.43-5.74,1.62-1.18,3.54-1.77,5.74-1.77Z"/>
      <path class="cls-2" d="m838.01,157.18c14.96,8.28,29.05,15.31,44.62,22.4,19.27,8.78,38.92,16.58,58.98,23.37,18.37,6.22,37.01,11.55,55.9,15.94,10.24,2.38,20.55,4.45,30.93,6.18,9.93,1.65,19.87,3.23,29.7,5.4,10.26,2.26,20.34,5.08,29.85,9.67,9.95,4.8,18.75,11.08,25.68,19.78,19.16,24.03,8.39,57.12-4.4,81.67-2.73,5.23-6,11.16-9.83,17.79-3.09,5.16-6.48,10.09-10.17,14.81-3.68,4.72-7.37,8.73-11.05,12.04-3.69,3.31-7.15,5.71-10.39,7.18-3.24,1.47-5.89,1.55-7.95.22-1.33-.88-2.25-2.73-2.76-5.53-.52-2.8-.81-5.82-.88-9.06-.08-3.24,0-6.41.22-9.5.22-3.09.4-5.38.55-6.85.44-4.71,1.03-9.65,1.77-14.81.74-5.16,1.62-10.24,2.65-15.25,1.03-5.01,2.17-9.83,3.43-14.48,1.25-4.64,2.54-8.87,3.87-12.71.29-1.33.14-2.61-.44-3.87-.59-1.25-1.36-2.1-2.32-2.54-.96-.44-2.07-.33-3.32.33-1.25.66-2.4,2.25-3.43,4.75l-3.54,9.94c-5.89-5.74-12.27-8.29-19.12-7.62-6.85.66-13.34,3.54-19.45,8.62-6.12,5.08-11.34,11.93-15.69,20.55-4.34,8.62-6.89,18.01-7.62,28.18-.44,5.75-.07,10.24,1.11,13.48,1.18,3.24,2.87,5.34,5.08,6.3,2.21.96,4.72.96,7.51,0,2.8-.96,5.53-2.69,8.18-5.19,3.54-3.09,7.18-7.14,10.94-12.15,3.76-5.01,7.4-10.28,10.94-15.8,3.54-5.52,6.77-11.05,9.72-16.57,2.94-5.52,5.3-10.35,7.07-14.47-1.92,7.37-3.54,14.81-4.86,22.32-1.33,7.51-2.36,14.66-3.09,21.44-.44,4.86-.66,9.47-.66,13.81s.33,8.21.99,11.6c.66,3.39,1.58,6.19,2.76,8.4,1.18,2.21,2.8,3.76,4.86,4.64,3.54,1.47,7.37,1.25,11.49-.66,4.12-1.92,8.32-4.86,12.6-8.84,4.27-3.98,8.47-8.69,12.6-14.14,4.12-5.45,7.96-11.05,11.49-16.8,3.54-5.89,6.59-11.56,9.17-17.02,8.62-18.23,18.72-39.91,17.04-60.58-1.29-15.87-11.22-29.3-23.47-38.78-9.72-7.52-20.76-12.33-32.46-15.77-10.87-3.19-22.01-5.14-33.16-6.99-15.42-2.55-30.74-5.55-45.94-9.2-19.49-4.68-38.66-10.42-57.57-17.06-26.99-9.48-53.15-20.86-78.62-33.86-5.6-2.86-9.62-5.63-11.88-6.91l-7.63,2.2Zm-8.49-10.5c-5.45-3.15-8.75-5.22-14.03-8.66-11.6-7.56-22.47-15.99-31.77-26.32-1.72-1.91-3.37-3.87-4.94-5.88-5.81-7.44-10.53-15.56-13.93-24.49-3.72-9.79-5.52-19.89-4.6-30.37.69-7.8,2.86-15.2,6.55-22.11,5.56-10.43,13.46-18.37,24.54-22.89,1.21-.49,1.95-1.3,1.98-2.6.03-1.26-.63-2.13-1.81-2.58h-.68c-18.3,7.4-28.78,21.44-33.88,40.01-.89,3.22-1.39,6.53-1.62,9.87-.01.22-.09.44-.14.65v9.93c.14,1.3.26,2.61.43,3.91,1.15,8.68,3.68,16.94,7.45,24.83,2.64,5.52,5.73,10.66,9.22,15.5,2.7,3.75,5.64,7.31,8.79,10.71,3.77,4.08,7.84,7.93,12.15,11.58,9.17,7.79,25.08,17.21,30.87,20.77l5.42-1.83Zm216.87,184.74c-2.95,5.53-6.15,11.05-9.61,16.57-3.46,5.53-7.07,10.72-10.83,15.58-3.76,4.86-7.26,8.77-10.5,11.71-3.24,2.51-5.86,3.76-7.84,3.76s-3.46-.96-4.42-2.87c-.96-1.91-1.4-4.53-1.33-7.84.08-3.32.7-7.03,1.88-11.16,2.36-8.98,5.52-16.98,9.5-23.98,3.98-6.99,8.25-12.49,12.82-16.46,4.57-3.98,9.24-6.08,14.03-6.3,4.79-.22,9.17,1.88,13.15,6.3-1.62,4.28-3.91,9.17-6.85,14.7Z"/>
    </g>
    <g id="Flor">
      <path class="cls-3" d="m297.14,277.94c2.82.85,5.59,2,8.22,3.33,3.28,1.66,6.18,3.8,8.17,6.94,2.5,3.94,4.14,6.94,7.97,9.88,4.36,3.35,11.25,13.2,4.62,18.68,1.26,1.29,16.21,14.66,9.71,31.41,0,0,12.43,12.74,2.82,30.39.43.55,11.77,13.18-4.72,17.42,3.24,1.97,4.83,5.54,5.21,6.48,3.24,8.14-5.95,14.58-12.44,17.05-5.17,1.97-7.48-1.83-9.81-6.18,0,0,2.54,20.07-13.3,10.44,0,0-12.65,2.83-17.93-.38-1.41,4.53-4.8,7.09-5.27,7.46-5.78,4.48-13.18,3.41-19.85,2.14-6.68-1.28-13.58-3.47-19.22-7.37.02.01-4.81,1.9-6.15,2.23-13.67,3.29-27.39-11.1-31.98-23.42,0,0-6.05-16.22-11.34-21.25.78,14.24,1.38,29.71-2,43.64-1.75,7.23-8.5,16.58-16.99,16.1-.44,2.08-1.88,3.49-2.53,4.19-2.77,2.99-6.84,3.49-9.42,6.98-4.33,5.85-12.03,9.52-19.38,7.59l-4.18-1.5s-13.26,13.56-25.76,3.81c-.89.89-1.95,2.68-5.95,3.49-8.09,1.64-12.04-4.82-15.22-10.57-1.21,1.41-2.75,2.43-4.88,2.66-2.48.26-4.59-.06-6.78-1.24-3.76-2.02-7.53-6.52-4.38-10.37.2-.24.02-.6-.29-.59-1.8.08-3.78-.41-4.55-.65-3.66-1.12-7.35-3.43-9.23-6.97-1.47-2.77.49-5.1,1.37-6.57,0,0-9.18,6.06-13.81-5.21-4.63-11.26,8.97-22.96,10.09-24.26-2.61-1.77-4.91-6.05-5.15-6.51-7.69-14.41,11.88-26.63,22.44-32.57,0,0-2.2-3.42-2.13-5.05-9.45,2.24-20.01,3.87-29.73,2.97-7.07-.65-13.35-3.73-17.88-9.28-4.17-5.12-5.67-13.23.68-17.42,0,0-7.55-3.64-10.51-10.31-2.96-6.67.24-12.85.24-12.86-.15.28-3.47-2.73-4.5-4.97-2.75-5.95-1.15-10.56,3.97-13.86-1.07.12-4.36-.82-5.21-1.16-3.86-1.53-9.81-7.35-7.33-12.03,1.17-2.2,4.23-2.77,6.51-2.59-1.06-1.35-2.23-4.29-2.42-4.92-1.69-5.59,2.33-13.26,9.06-11.88,0,0,.82-9.51,11.21-11.42.56-.1,1.04-3.97,1.15-4.47.47-2.11,1.11-4.05,2.11-5.98,4.12-7.87,11.93-12.75,20.58-14.12.79-.12,5.14-.57,8.16.46.15-7.53,10.54-13.39,17.43-12.78.65.06,1.86.21,3.55.91,0,0-15.24-26.67-7.95-41.12.44-.87,1.65-2.78-.11-6.14-4.69-8.97-1.32-19.37,6.65-25.12,1.5-1.08,3.11-2,4.79-2.78,0,0-2.8-9.48.87-13.86,3.67-4.38,9.37-4.79,9.37-4.79,0,0-3.52-8.66,4.18-18.05,2.85-3.48,4.7-5.12,9.18-6.76,5.52-2.03,12.48,1.37,12.12,6.56,0,0,6.57-.42,9.16,4.63,0,0,14.68-8.19,25.59,6.91,0,0,4.95,7.01,6.17,11.17,0,0,8.5-.71,16.91,7.72,8.41,8.43,9.2,12.71,9.2,12.71,0,0,9.74-.57,16.08,8.69,6.33,9.26,5.75,14.79,5.75,14.79,0,0,4.55-6.65,10.63-4.99,6.08,1.66,9.36,4.08,9.36,4.08.02.02,2.43-2,2.61-2.15,1.92-1.49,3.79-2.67,6.23-3.03,2.53-.37,5.11-.14,7.61-.73,2.66-.62,5.18-1.83,7.31-3.53,5.52-4.42,13.13-4.67,18.59-1.55,2.65,1.51,5.33,3.25,7.42,5.47.5.54,1.15.95,1.89,1.01.93.07,1.86-.26,2.72-.58,5.27-1.91,11.46-2.07,16.84-.52,4.58,1.32,8.66,4.11,11.08,8.28,1.69-1.88,4.41-3,4.77-3.16,8.13-3.48,16.06,3.22,14.15,12.58l-1.14,3.99c1.98-1.11,6.32-1.62,7.26-1.6,7.78.1,16.33,9.1,11.66,16.77-2.27,3.73-6.77,6.36-10.84,7.75,0,0,10.09,5.46,3.33,13.28,0,0,8.15,14.49-5.14,26.29.56.96,2.29,4.7,3.23,8,3.77,13.14-12.5,25.42-25.2,23.25-2.38-.41-5.21-.97-7.64-.97-2.8,0-5.13.67-7.75,1.58Z"/>
      <g>
        <path class="cls-3" d="m257.2,294.97c5.8,3.34,12.13,1.46,18.39.92,6.01-.52,12.08.18,17.95,1.56,12.63,2.97,22.1,9.15,32.57,19.33"/>
        <path class="cls-1" d="m280.88,316.51c2.48-1.36,5.07-2.33,7.79-3.08,1.67-.52,3.46-1.06,5.26-1.05,1.77,0,5.39.27,4.57,2.87-.29.76-1.01,1.06-1.74,1.15-3.54.74-7.65.82-11.34,1.33-1.36.11-2.72.26-4.11.31-.84.06-1.18-1.16-.43-1.54h0Z"/>
        <path class="cls-1" d="m286.03,323.21c4.31-3.18,9.41-5.71,14.93-5.23,1.94.18,7.76,1.57,5.87,4.57-.52.66-1.38.81-2.11.53-1.27-.38-2.59-.55-4.02-.56-4.66.07-9.5.81-14.15,1.76-.61.17-1.03-.69-.52-1.07h0Z"/>
        <path class="cls-1" d="m274.71,310.63c-6.2.51-12.25,2.57-18.19,4.31-1.15.36-2.37-.28-2.72-1.43-.33-1.07.22-2.21,1.23-2.65,3.19-1.29,6.36-2.26,9.75-2.79,3.45-.49,7.06-.58,10.34.87.85.39.53,1.72-.4,1.69h0Z"/>
        <path class="cls-1" d="m298.05,329c9.68-2.15,19.96-3.38,27.62,4.42,4.21,3.88,7.86,8.12,11.29,12.69,1.7,2.4-1.78,4.98-3.58,2.63-10.67-13.93-17.21-18.72-35.18-18.23-.89.01-1.04-1.33-.16-1.51h0Z"/>
        <path class="cls-1" d="m205.34,372.86c3.12,4.27,6.7,8.08,10.13,12.27,3.17,4.42,5.58,9.28,8.15,13.91,3.88,6.67,7.69,13.67,12.75,19.45,1.68,1.8,3.52,3.4,5.53,4.78,2.77,1.98-.02,6.15-2.92,4.31-2.39-1.6-4.56-3.53-6.43-5.68-5.26-6.04-8.51-14.13-12.19-21.12-4.79-9.63-11.45-17.6-15.95-27.39-.25-.55.55-1.07.93-.54h0Z"/>
        <path class="cls-1" d="m219.9,362.24c9.71,16.43,20.04,32.13,36.89,41.94,4.83,2.86,10.23,5.14,15.18,8,2.5,1.45,4.98,3.05,7.39,4.56,2.22,1.32,4.75,3.53,6.84,4.45,1.17.48,1.73,1.83,1.23,3-1.82,3.85-7.43-1.73-9.4-2.8-2.7-1.73-5.62-3.82-8.28-5.49-4.89-3-10.02-5.36-14.94-8.54-3.31-2.18-6.37-4.49-9.37-6.98-12.02-9.84-19.88-23.83-26.69-37.52-.16-.32-.03-.71.3-.87.3-.15.67-.04.84.25h0Z"/>
        <path class="cls-3" d="m228.22,351.76c.27,7,.23,14.38,4.27,20.33,3.94,5.8,12.45,9.11,16.15,1.49.02-.05.09-.04.09.01.1,3.22.98,6.8,1.63,8.84,1.2,3.75,3.27,7.71,6.51,10.08,3.41,2.49,8.64,2.9,11.41-.69,3.13-4.06,2.85-10.3,3.14-15.18.53-8.78-2.58-16.76-7.14-24.1-2.06-3.31-4.79-7.3-8.44-8.98-3.87-1.78-6.74.37-9.12,3.24-.07.09-.2.05-.23-.06-.18-.91-1.07-3.85-5.55-6.29"/>
        <path class="cls-3" d="m244.49,336.06c1.81,4.64,4.91,5.93,9.83,6.99,5.79,1.25,9.5-1.5,14.53-2.99,1.9-.57,3.92-.43,5.9-.35s4.03.07,5.83-.75c5.98-2.72,1.67-9.98-1.25-13.35-3.16-3.63-7.7-5.26-12.35-5.96-8.75-1.32-14.54,1.8-14.54,1.8"/>
        <path class="cls-3" d="m268.72,340.09c-1.28.34-2.54.87-3.78,1.71-1.6,1.08-3.87,2.82-3.19,4.63,1.95,5.18,6.9,14.57,12.34,19.46,1.65,1.49,4.23,1.83,6.35,1.14,3.35-1.09,5.54-3.98,9.08-4.98,3.69-1.04,7.58-1.22,11.25-2.32,2.52-.76,5.41-1.81,7.21-3.8,4.78-5.26-2.12-9.11-5.66-11.84-2.42-1.87-4.36-4.39-7.19-5.7-4.03-1.87-8.64-.84-12.76.13-4.5,1.06-9.21.39-13.66,1.58Z"/>
        <path class="cls-3" d="m295.53,389.36c-.9-2.58-6.19-14.76-12.47-18.95-4.25-2.84-10.22-3.53-10.92,2.58-1.23,10.68-2.14,22.63,3.68,32.08,1.24,2.01,2.75,3.9,4.75,5.15,4.1,2.57,10.75,1.68,13.05-4.37.01-.03.02-.03.02,0,.98,9.09,6.88,15.92,13.89,19.48,6.02,3.06,8.44-3.77,9.08-8.51,1.21-8.88-1.37-23.94-9.36-29.48-1.94-1.35-4.19-1.48-6.53-1.31-4.29.33-4.98,3.98-5.2,3.32Z"/>
        <path class="cls-3" d="m326.18,419.7c-1.33.29-4.26.67-5.72-1.09-.95-1.14-1.91-3.62-2.35-5.04-1.48-4.79-1.09-6.35-1.77-11.7-.36-2.82-1.54-5.5,1.55-6.31,3.14-.81,9.21-1.57,12.36-.73,8.08,2.14,12.35,10.61,7.38,17.31-1.91,2.57-7.32,6.66-11.45,7.56Z"/>
        <path class="cls-3" d="m338.5,393.88c-1.66.96-3.74,1.25-5.69,1.18-2.63-.1-5.23-.75-7.87-.74-2.22,0-4.41.48-6.63.55s-3.92-.8-5.59-2.27c-3-2.63-4.31-7.03-9.24-6.72-4.72.3-5.64-2.23-3.58-4.76,2.16-2.66,5.76-5.22,12.78-4.95,7.92.31,12.12-4.15,22.41,2.18,4.39,2.7,9.42,9.33,4.97,14.29-.46.51-.99.92-1.57,1.26Z"/>
        <path class="cls-3" d="m321.36,373.38c1.33-.97,2.33-2.26,2.76-4,2.54-10.31-13.45-11.07-19.89-10.03-2.91.47-5.81,1-8.69,1.59-4.11.84-18.57,3.7-11.01,10.35,1.93,1.7,4.18,3.55,5.79,5.72,1.46,1.97,2.26,4.82,4.91,5.49,2.98.75,4.64-1.43,6.64-3.1,2.19-1.83,4.66-2.63,7.5-2.9,3.6-.33,8.76-.76,11.99-3.12Z"/>
        <path class="cls-1" d="m296.89,397.27c-1.61-2.41-2.9-4.95-3.72-7.75-.98-3.41,3.98-4.97,5.13-1.61.44,1.26-.4,2.27-.59,3.47-.35,1.77-.32,3.71.15,5.46.18.57-.66.94-.96.44h0Z"/>
        <path class="cls-1" d="m293.73,397.62c1.42,2.43,1.89,5.22,2.14,7.99.14,1.25-.79,2.38-2.05,2.48-1.23.1-2.31-.82-2.41-2.06.09-1.54.98-2.92,1.19-4.47.27-1.19.45-2.49.36-3.7-.05-.42.56-.62.77-.25h0Z"/>
        <path class="cls-1" d="m249.94,364.93c.27,1.22.46,2.48.61,3.71.01.1.03.31.05.4.32.67.2,1.55.32,2.31.06.73.07,1.47.05,2.2-.03,1.25-1.06,2.25-2.32,2.22-1.25-.03-2.25-1.06-2.22-2.32.25-1.55,1.1-2.93,1.48-4.48.2-.18.13-.17.22-.48,0,0,.12-.49.12-.49.23-.96.4-2.01.43-2.97.02-.73,1.11-.82,1.26-.11h0Z"/>
      </g>
      <g>
        <path class="cls-3" d="m255.67,283.99s30.17-2.14,41.47-6.04"/>
        <path class="cls-3" d="m252.89,271.01c11.36-.62,20.49-1.94,30.11-5.25,9.92-3.41,18.57-9.8,28.62-12.84,4.09-1.24,8.28-1.56,12.43-2.46,3.61-.78,7.24-2.48,10.45-4.36"/>
        <path class="cls-1" d="m253.15,191.12c-12.57,1.77-18.92,21.78-16.41,32.72.57,3.04,1.15,6.29,3.36,8.21.61.46,1.24.57,2,.55,1.25.04,2.23,1.09,2.19,2.34-.02.53-.22,1.02-.54,1.4-.68.8-1.13,1.73-1.2,2.48-.02.18-.01.35,0,.45,0,.02,0,.03,0,.05.01.02-.02-.05.02.05.28.74.57,1.47.92,2.21,1.38,2.95,3.11,5.96,4.86,8.78,4.24,5.5,12.11,7.39,18.56,8.11,2.67.21,5.21-.42,7.59-1.65,2.52-1.77,3.13-5.47,3.44-8.42.09-1.25.04-2.5-.2-3.54-.27-1.22.49-2.42,1.71-2.7.68-.15,1.36.02,1.87.42,4.43,4.16,9.58,3.63,14.99,1.76,4.28-1.53,10.21-4.87,7.54-9.93-.58-1.11-.15-2.49.97-3.06.83-.43,1.81-.3,2.49.26.59.42,1.98,1.01,2.83,1.3,4.54,2.01,11.8,2.07,13.71-3.32.59-1.78.28-3.92-.61-5.96-.94-2.07,1.52-4.06,3.35-2.8,4.5,2.31,14.69-2.25,12.83-7.9-.6-1.66-2.36-3.32-4.31-4.5l2.36-3.89c-.68-.36-.86-.19-.85-.23,2.34-.92,4.64-2.78,6.55-4.42,5.17-4.72,1.66-14.04-4.64-15.9-2.88-.92-6.37-.2-9.14,1.51-1.07.66-2.47.33-3.13-.74-.41-.66-.43-1.47-.14-2.13,1-2.25,1.05-5.47.63-7.91-.72-3.47-4.3-6.63-7.96-6.49-4.05.25-6.53,3.8-8.3,7.46-.63,1.44-2.65,1.76-3.71.61-7.01-6.9-14.24-.3-18.2,6.39-.62,1.09-2.03,1.46-3.08.77-.32-.21-.89-.5-1.37-.72-8.55-3.94-17.9-.19-22.9,7.48-.62.93-2.05.05-1.51-.92,5.44-10.24,17.39-14.84,28.07-9.77,0,0-3.08.77-3.08.77,2.63-4.14,5.73-8.14,10.42-10.32,4.97-2.45,11.29-.77,14.99,3.24,0,0-3.76.56-3.76.56,3.04-7.08,10.13-12.83,17.96-8.78,3.4,1.77,6.01,4.9,6.87,8.77.6,3.65.55,7.21-.94,10.75,0,0-3.27-2.87-3.27-2.87,8.33-5.28,18.71-2.2,22.29,7.14,2.19,5.32.55,12.04-4.18,15.46-2.5,1.84-4.93,4.08-8.14,4.61-1.95.23-3.76-1.64-2.7-3.52,1.92-2.88,5.01.45,6.74,1.97,8.09,8.19-.47,17.45-9.65,18.61-2.56.23-4.92.08-7.29-1.29,0,0,3.34-2.81,3.34-2.81,2.94,6.09.78,13.52-5.85,15.94-5.7,2.18-12.08.5-17.12-2.62,0,0,3.46-2.8,3.46-2.8,5.06,9.8-6.77,16.29-14.81,17.56-5.32,1.16-10.45-.05-14.46-3.65,0,0,3.56-2.35,3.56-2.35,1.02,5.58-.34,13.88-5.59,16.95-4.35,2.4-9.69,2.67-14.42,1.49-4.37-.89-8.72-2.06-12.42-4.64-2.59-1.73-4.85-3.87-6.35-6.7-1.89-3.21-3.81-6.56-5.14-10.13-.05-.23-.22-.63-.23-.9-.38-2.45.81-4.95,2.21-6.59,0,0,1.79,3.74,1.79,3.74-9.05-.08-9.84-13.59-9.53-20.18.98-11.15,8-27.04,20.65-28.06,1.51.04,1.44,2.23-.03,2.22h0Z"/>
        <path class="cls-1" d="m258.13,196.81c2.08,5.99,2.89,12.54,1.98,18.87-.7,6.44-3.09,13.54-8.68,17.51,0,0-1.86-4.06-1.86-4.06,3.04-.8,6.56-.53,9.49,0,2.86.44,5.91.88,8.92,2.04,2.97,1.15,5.48,2.87,8.02,4.78,2.48,1.93,4.7,4.53,6.06,7.52.53,1.15.02,2.5-1.13,3.02-1.14.52-2.48.01-3-1.12-1.05-2.29-2.67-4.22-4.75-5.85-2.06-1.55-4.38-3.17-6.82-4.1-2.4-.93-5.12-1.36-7.97-1.79-2.76-.46-5.12-.73-7.74-.08-2.47,1.53-4.82-2.04-2.42-3.7,2.56-1.58,4.68-3.67,6.07-6.36,3.83-7.96,4.54-17.62,2.21-26.2-.26-1.03,1.27-1.52,1.63-.48h0Z"/>
        <path class="cls-3" d="m286.67,181.52c9.25,7.48-2.94,12.01-4.63,15.1-3.41,6.22.15,7.83-1.62,13.81-1.14,3.84-3.33,6.44-7.1,9.04,1.94-.1,3.97.13,5.37.29,2.33.27,4.64.71,6.91,1.32,7.49,2,15.75,5.74,20.3,12.31"/>
        <path class="cls-1" d="m281.08,205.76c.83,2.98,2.92,3.33,5.6,2.81,1.36-.2,2.2,1.62,1.19,2.53-.68.65-1.42,1.37-2.08,2.1-1.81,2.05-3.94,4.38-2.38,7.25-3.83-1.72-2.07-6.84.12-9.22.73-.87,1.49-1.62,2.43-2.34l1.12,2.59c-3.48.51-7.54-1.8-6-5.71h0Z"/>
        <path class="cls-3" d="m306.82,173.35c3.57,5.4,1.52,11.01-.58,16.47-1.18,3.07-2.24,6.22-3.82,9.11-.79,1.44-1.7,2.81-2.8,4.03-1.02,1.13-1.48,1.78-3.7,3.21.45.39,1.01.61,1.55.87,4.88,2.41,10.18,3.74,15.09,6.11,5.67,2.74,12.88,5.34,13.91,13.76"/>
        <path class="cls-1" d="m305.89,190.76c.28,2.13.79,4.35,2.12,5.99.41.48.88.81,1.33.96.88.26,1.07,1.53.31,2.03,0,0-.5.36-.5.36-1.58,1.32-4.32,1.84-5.21,3.85-.86,2.05.69,4.72,1.95,6.49-3.82-3.01-5.43-7.16-1.34-10.77,1.08-.94,2.15-1.87,3.65-2.05,0,0-.19,2.39-.19,2.39-2.78-2.23-2.62-6.14-2.12-9.24h0Z"/>
        <path class="cls-1" d="m321.39,203.56c-3.19,0-5.59-3.38-4.41-6.41,0,0,1.86,1.49,1.86,1.49-2.4,1.83-5.38,2.78-8.38,2.31-1.35-.28-4.24-.86-3.4-2.78.32-.6,1.01-.83,1.62-.64,2.18.63,4.42.59,6.6-.08.81-.25,1.62-.58,2.31-.94.98-.53,2.14.6,1.66,1.59-1.26,2.01.22,4.42,2.12,5.45h0Z"/>
        <path class="cls-1" d="m322.07,190.2c.36,2.53-.74,4.96-2.11,7.03-.76.9-2.03,3.02-3.32,1.76-.4-.46-.36-1.15.06-1.57,2.16-2.09,3.55-4.68,5.07-7.27.07-.13.28-.1.3.05h0Z"/>
        <path class="cls-1" d="m327.43,202.65c1.02.19,3.38.65,4.36.81,1.87.29,4.29.9,6,.34,3.95-1.34,5.33,4.75,1.18,5.24-4.83.25-8.79-2.58-11.78-6-.14-.17.03-.44.24-.39h0Z"/>
        <path class="cls-1" d="m223.64,219.38c-.88-8,4.89-12.72,12.02-14.65,2.22-.73,3.37,2.56,1.16,3.37-.9.22-1.84.22-2.75.42-1.01.24-2.2.62-3.13,1.09-.61.36-1.28.75-1.82,1.21-1.47,1.09-2.76,2.53-3.65,4.14-.77,1.33-1.27,2.86-1.53,4.43-.02.17-.28.17-.3,0h0Z"/>
        <path class="cls-1" d="m217.71,213.5c1.91-14.46,11.93-26.77,24.23-34.07,12.08-7.65,24.94-13.86,38.56-18.32,1.09-.34,2.25.26,2.59,1.34.34,1.06-.23,2.19-1.26,2.56-6.44,2.53-12.94,5.24-19.26,8.18-9.37,4.49-19.08,8.69-27.45,14.93-8.17,6.33-14.56,15.21-16.96,25.42-.02.13-.15.22-.28.19-.11-.03-.19-.13-.17-.25h0Z"/>
        <path class="cls-1" d="m207.92,208.98c-1.2-8.37,3.89-15.29,8.38-21.67,2.13-3.15,3.9-6.46,5.58-9.8,1.7-3.34,3.07-6.82,4.33-10.34.84-2.3,4.32-1.33,3.84,1.07-1.67,7.88-5.67,15.16-10.84,21.24-4.97,5.81-10.58,11.36-10.84,19.48,0,.26-.43.28-.46.01h0Z"/>
        <path class="cls-3" d="m196.32,212.89c-1.86-7.92,3.18-13.99,6.4-20.69,3.49-7.25,5.62-15.72,5.4-23.78"/>
        <path class="cls-1" d="m257.7,219.37c1.78,1.33,3.95,1.53,6.07,1.65.61.02,1.49,0,2.1,0,.81-.01,1.48.64,1.49,1.46,0,.64-.39,1.18-.96,1.41-3.12,1.64-7.27,3.47-7.29,7.6-3.03-4.36,2.29-8.99,6.2-10.36,0,0,.54,2.86.54,2.86-3.11-.14-7.16-1.28-8.16-4.61h0Z"/>
      </g>
      <g>
        <path class="cls-1" d="m190.84,206.65c2.36-2.65,4.33-5.6,6.47-8.38.48-.6,1.37-.7,1.97-.22,1.37,1.26-.38,3.08-1.14,4.16-1.96,2.11-4.48,3.61-7.12,4.69-.15.06-.28-.13-.17-.25h0Z"/>
        <path class="cls-1" d="m187.46,142.03c3.19,7.72,4.86,15.82,5.8,24.06.61,6.74.35,13.86-.96,20.51-1.28,6.68-3.61,13.23-6.69,19.23-.06.11-.19.16-.31.1-.1-.05-.15-.16-.12-.27,1.17-5.26,2.43-10.4,2.89-15.67,1.28-11.7,1.06-23.56-1.3-35.1-.81-3.77-1.89-7.74-3.28-11.25-.97-2.6,2.8-4.18,3.96-1.63h0Z"/>
        <path class="cls-1" d="m181.74,204.02c-.75-21.09-7.57-41.56-16.88-60.33-1.28-2.71-2.81-5.28-4.16-7.96-.59-1.02-.21-2.34.85-2.87.96-.48,2.12-.13,2.67.77,3.18,5.27,6.28,10.65,8.6,16.38,4.75,11.37,7.79,23.46,9.07,35.69.58,6.11.87,12.24.3,18.35-.01.12-.12.22-.25.21-.12-.01-.21-.12-.21-.23h0Z"/>
        <path class="cls-1" d="m165.29,159.32c-2.02-13.19-5.64-26.02-9.09-38.87-.31-1.08.33-2.21,1.42-2.48.97-.24,1.95.27,2.32,1.16.66,1.58,1.31,3.18,1.81,4.82.49,1.39,1.04,3.49,1.41,4.94,1.56,6.64,2.2,13.45,2.57,20.24.1,3.39.19,6.78.02,10.17,0,.26-.42.29-.45.02h0Z"/>
        <path class="cls-1" d="m74.7,198.32c5.79,13.37,14.25,25.74,24.06,36.5,4.43,5.08,9.39,9.46,14.54,13.94.1.08.12.23.03.33-.07.08-.18.1-.27.05-1.23-.6-2.43-1.26-3.66-1.89,0,0-1.81-1-1.81-1-12.54-7.44-22.28-18.97-29.04-31.79-2.56-4.91-4.81-9.92-6.39-15.32-.21-.71.2-1.45.91-1.66.69-.2,1.4.17,1.64.83h0Z"/>
        <path class="cls-1" d="m70.94,161.19c3.51,4.91,7.85,11.59,11.6,16.23,1.4,1.57,2.91,3.34,4.23,4.96,1.8,2.3,3.75,4.43,5.67,6.92.09.1.08.26-.03.34-2.32-.4-4.52-1.84-6.5-3.12-5.09-3.6-8.57-8.98-11.59-14.32-1.72-3.44-3.13-7.03-3.8-10.85-.05-.24.3-.38.42-.16h0Z"/>
        <path class="cls-1" d="m74.01,174.59c3.12,6.32,7.71,12.14,12.88,16.93,2.6,2.44,5.6,4.37,8.35,6.62,2.73,2.34,5.68,4.33,8.59,6.91.6.93-2.62-.06-3.04-.05-4.69-1.02-9.14-3.25-12.8-6.35-4.22-3.87-8.24-7.99-11.54-12.66-2.26-3.09-4.22-6.25-5.97-9.81-.47-.96-.08-2.12.88-2.59,1-.5,2.22-.03,2.64,1h0Z"/>
        <path class="cls-1" d="m121.96,236.89c-14.37-5.4-26.22-19.55-32.57-33.19-.92-2.07-1.77-4.17-2.59-6.28-.43-1.11.12-2.35,1.22-2.78,1.1-.43,2.33.12,2.77,1.19.96,1.96,1.82,3.95,2.73,5.92,1.94,3.87,3.9,7.73,6.2,11.41,3.3,5.57,7.36,10.84,11.99,15.36,3.1,3.05,6.55,5.85,10.41,7.95.25.1.11.53-.16.43h0Z"/>
        <path class="cls-3" d="m126.99,221.2s-5.4-.21-1.54,6,8.37,5.26,8.37,5.26"/>
        <path class="cls-1" d="m122.25,203.57c-1.64-.76-7.62-3.45-8.3-.96-.58,2.81.67,6.07,2.77,8.35,4.02,4.51,9.78,7.21,15.02,10.24,2.29,1.36,8.61,2.86,9-1.03.09-.84,0-1.89-.27-2.95-.31-1.22.43-2.45,1.65-2.76,3.31-.57,3.3,3.76,3.23,6.2-.74,7.91-10.73,7.84-15.97,4.55,0,0-3.26-1.87-3.26-1.87-6.8-4.01-15.02-8.87-16.2-17.57-.68-6.82,4.37-8.66,9.6-5.16,1.14.7,2.18,1.48,3.15,2.36.33.28-.06.81-.42.6h0Z"/>
        <path class="cls-1" d="m112.45,191.59c-7.32-2.64-14.68-6.74-18.95-13.63-5.26-8.78.31-20.76,11.44-16.73,4.94,2.03,9.29,4.63,13.76,7.47,6.59,4.19,12.69,9.5,17.06,15.98,2.2,3.44,5.32,5.89,6.75,9.79.58,1.61.85,3.5-.03,5.21-2.69,4.93-12.43,3.44-16.53,1.26-2.39-1.26-4.54-2.86-6.19-4.98-.27-.32.12-.8.49-.62,2.32,1.05,4.59,2.06,6.88,2.78,3.56,1.05,7.96,1.92,11.42.45.99-.65.81-1.36.36-2.76-.77-2.13-2.64-3.92-4.08-5.64-2.34-2.97-4.45-6.12-6.97-8.84-5.13-5.32-11.44-9.38-17.79-13.1-3.01-1.54-6.12-3.77-9.5-3.9-5.93.15-6.53,7.81-4.03,11.93,3.78,6.2,10.35,10.21,16.31,14.42.52.29.12,1.11-.42.91h0Z"/>
        <path class="cls-1" d="m102.39,162.72c-10.45-.62-21.48-14.56-7.85-20.01,3.6-.95,4.23,4.56.52,4.42-18.08-1.6-20.75-26.31-1.75-29.28,0,0-1.59,3.14-1.59,3.14-1.36-3.51-1.22-7.44-.32-11.01,2.4-8.44,9.01-16.75,18.26-17.81,4-.13,8.22,1.27,10.52,4.85,3.38,5.44.03,12.41-4.87,15.5-1.86,1.41-2.69,1.79-2.54,3.77.93,4.06-1.09,9.24-5.5,10.26-1.01.27-1.9.37-2.75.46l1.04-4.15c6.42,2.98,9.43,8.73,10.35,15.46.78,4.37-.91,9.51-5.39,11.21,0,0-.15-4.24-.15-4.24,1.59.57,3.95.78,6.32,1.94,2.32,1.1,4.17,3.16,5.39,5.33,0,0-4.22,1.53-4.22,1.53-.13-.66-.54-1.76-.85-2.89-1.07-3.48-.71-7.57.64-10.85,2.4-6.02,4.74-12.12,7.9-17.86,3.35-7.42,12.88-8.76,16.07-.51,3.78,12.49-.85,30.3-5.07,42.4-2.17,6.81-7.18,10.66-12.44,3.66,0,0,4.06-.96,4.06-.96-.32,1.08-.71,1.81-1.28,2.72-1.02,1.78-3.48,3.42-5.62,2.77-1.12-.34-3.62-1.28-2.7-2.65.28-.36.76-.47,1.16-.29,1.06.44,2.31.67,3.02-.21.61-.72.96-2.17.95-3.15-.27-2.04,2.47-3.09,3.66-1.48,0,0,.41.53.41.53.66.85,1.3,1.64,2.03,1.85,1.17-.7,1.91-2.96,2.5-4.41,2.73-7.78,4.98-16.01,5.79-24.28.36-4.13.54-8.37-.04-12.22-.3-1.94-.85-3.57-1.84-4.53-1.43-1.57-3.95-.78-5.25.7-.25.27-.49.62-.67.94-3.45,5.86-5.85,12.27-8.4,18.62-1.05,2.68-1.28,5.28-.49,7.98.24.94.63,1.83.94,3.27.53,2.48-2.89,3.8-4.16,1.63-1.29-2.45-3.29-3.9-6.03-4.44-.96-.24-2.06-.46-3.26-.87-1.96-.62-2.04-3.5-.15-4.24,5.27-2.02,1.94-11.84-.62-14.99-.93-1.16-2.07-2.04-3.39-2.76-.49-.28-.96-.5-1.69-.96-1.05-.67-1.35-2.07-.68-3.12,1.05-1.69,3.67-.69,4.88-1.95,1.33-1.3,1.32-2.91,1.02-4.84-.64-4.83,3.18-6.9,6.08-9.2,4.91-4.88,2.81-10.95-4.35-10.82-4.13.41-7.71,3.31-10.27,6.63-3.33,4.4-5.59,10.37-3.82,15.81.52,1.22-.08,2.65-1.34,3.08-1.58.4-3.17.68-4.31,1.25-1.11.54-2.35,1.41-3.22,2.28-1.89,1.87-2.38,4.32-2.17,6.97.41,5.49,5.2,9.61,10.7,9.88,0,0-.58,4.51-.58,4.51.29.05.66,0,.92-.07,0,0,0,0,0,0h-.02s-.06.02-.06.02l-.14.04c-4.04,1.34-4.45,3.43-2.48,7.01,1.86,3.46,5.7,5.84,9.52,6.61,1.23.26.94,2.11-.3,1.99h0Z"/>
        <path class="cls-3" d="m169.58,213.53s5.21-7.77,2.37-17.27c-2.08-6.98-5.62-4.66-5.62-4.66,0,0,3.33-8.62-2.47-19.04-3.57-6.41-10.72-4.07-10.72-4.07.26-.45,4.57-6.58,3.36-18.43-.82-8.04-5.19-18.65-14.9-14.54"/>
        <path class="cls-1" d="m160.09,203.71c-3.12.86-4.56,3.8-4.06,6.79.26,3.42-.44,6.97-3.04,9.56-2.6,2.74-7.1,2.38-9.81-.03-3.48-2.97-5.21-7.21-5.56-11.71.05-5.8,2.29-10.38,4.33-15.43,1.02-2.36,2.11-4.66,3.22-6.96.3-.62,1.04-.87,1.65-.58.56.27.82.9.65,1.48-1.5,4.88-3.25,9.67-4.53,14.43-.59,2.35-1.15,4.82-1.01,6.8.34,2.99,1.68,6.5,4.07,8.44,2.45,2.04,4.37.89,5.4-1.97.6-1.54.68-3.4.85-5.08.25-2.28,1.55-4.71,3.62-5.77,1.34-.71,2.89-.97,4.24-.59.3.08.3.54,0,.61h0Z"/>
        <path class="cls-1" d="m150.04,172.52c.65,3.96,1.26,8.44-.96,12.22-4.21,7.38-12.41,9.46-17.25,1.29-2.32-3.75-4.16-8.1-3.61-12.61.31-2.31,1.09-4.3,1.88-6.1.51-1.15,1.85-1.68,3-1.17,1.06.46,1.59,1.63,1.28,2.71-.52,1.87-1.06,3.58-1.2,5.15-.39,3.16,1.07,6.71,2.67,9.47.85,1.43,2.07,2.82,2.92,3.17,4.26,1.36,8.81-4.43,9.47-8.45.42-1.78.51-3.75.98-5.74.09-.45.8-.4.82.06h0Z"/>
        <path class="cls-1" d="m132.85,203.98c2.9-.32,6.24,1.35,7.08,4.28.29,1.01-1.07,1.75-1.77.99-1.71-1.96-3.36-3.37-5.31-5.27h0Z"/>
        <path class="cls-1" d="m160.15,198.87c.7-1.09,1.62-2.64,2.29-3.77.74-1.15,1.43-2.38,1.63-3.73.51-2.75,4.57-2.12,4.2.66-.07.47-.3.87-.61,1.19-2.13,2.39-4.32,4.66-7.32,5.88-.14.06-.28-.11-.19-.23h0Z"/>
        <path class="cls-1" d="m103.73,143.65c-1.25.77-2.56,1.3-3.91,1.86-1.38.75-2.65,1.46-4.35,1.36-2.5-.16-2.59-3.82-.12-4.11,1.97-.24,4.13.57,6.16.43.72.07,1.43.08,2.15.17.15.01.19.22.07.3h0Z"/>
        <path class="cls-3" d="m128.44,106.44s4.07,4.81.08,15.48"/>
        <path class="cls-1" d="m113.75,137.23c2.49,1.74,3.47,2.78,6.28,3.38-2.28,3.05-7.12.03-6.28-3.38h0Z"/>
        <path class="cls-3" d="m172.8,200.34s6.14,4.91,3.45,11.98"/>
      </g>
      <g>
        <path class="cls-3" d="m116.46,333.57s-7.65,17.1-43.33,26.03"/>
        <path class="cls-1" d="m22.62,331.12c12.57,8.06,28.13,10.62,42.92,9.48,15.22-1.72,29.58-7.18,43.77-12.95.23-.11.45.26.22.4-6.37,4.48-13.34,8.12-20.66,10.94-20.04,7.09-44.3,9.08-63.56-1.39-1.84-1.04-3.47-2.03-5.16-3.4-.85-.69-.97-1.94-.28-2.78.69-.84,1.92-.96,2.76-.3h0Z"/>
        <path class="cls-3" d="m14.83,311.92s6.41,6.25,18.03-.83c0,0-2.28,18.09,15.87,12.8,3.59-1.05,7.04-2.69,13.33-6.82,0,0-3.06,9.58,6.33,12.37,9.38,2.79,20.72-10.6,20.72-10.6,0,0,3.85,11.53,19.39-2.11"/>
        <path class="cls-1" d="m12.13,293.48c4.11-3.6,10.19-5.96,15.96-5.91,2.73-.11,5.35.9,7.94.98,1.44,0,2.99-.08,4.15-.67,5.13-3.42,12.34-.8,12.62,5.73.08,5.6-4.36,9.43-9.19,11.02-.42.16-.68-.46-.29-.65,3.89-1.61,7.55-5.75,6.61-10.06-.83-3.71-5.02-4.18-7.75-2.25-3.96,2.04-8.51,1.04-12.54.4-3.24-.26-6.25.43-9.38,1.6-1.71.63-3.57,2.03-5.38,3.43-2.41,1.79-5.14-1.72-2.77-3.61h0Z"/>
        <path class="cls-1" d="m58.87,293.47c6.23-8.79,19.35-3.97,17.21,6.98-1.36-1.62-2.45-3.12-3.61-4.29-3.65-4.05-8.52-3.05-13.6-2.69h0Z"/>
        <path class="cls-1" d="m74.62,303.17c1.48-1.43.78-3.06.64-4.89-.42-6.45,7.15-8.9,12.31-9.5.42-.07.97-.2,1.31-.31,1.88-.73,1.67-3.4,1.78-5.28,2.09,2.09,2.93,6.25.15,8.3-1.29.98-2.61,1.36-3.99,1.77-2.11.61-4.28,1.41-6.16,2.37-1.27.65-2.02,1.56-2.43,2.92-.38,1.8-1.29,4.63-3.6,4.63h0Z"/>
        <path class="cls-1" d="m59.59,316.04c4.29-3.31,9.18-6.79,11-12.17.06-.26.47-.19.45.07-.32,4.54-2.99,8.55-5.56,12.17-1.48,1.6-3.77,5.57-6.23,3.19-.87-.96-.71-2.5.34-3.26h0Z"/>
        <path class="cls-1" d="m31.84,309.1c1.64-.91,2.89-2.2,4.18-3.67.19,1.1.1,2.22-.14,3.32-.35,1.49-1.08,2.88-2.25,3.95-.81.85-2.16.88-3.01.07-1.32-1.18-.5-3.51,1.23-3.66h0Z"/>
        <path class="cls-3" d="m89.11,318.83s13.18-16.62,8.87-27.78"/>
        <path class="cls-1" d="m90.93,283.97c3.24,2.65,6.5,5.64,10.75,4.97,1.36-.09,2.65-.64,4.09-.89.85-.23,1.78.24,1.9,1.16.06.42-.08.82-.34,1.12-1.24,1.42-2.79,2.58-4.67,3.07-5.87,1.91-11.87-3.62-11.73-9.43h0Z"/>
        <path class="cls-1" d="m7.96,275.84c7.2.88,13.08,7.49,12.82,14.75-2.3-5.63-7.14-9.75-13.21-10.51-2.84-.32-2.45-4.47.39-4.24h0Z"/>
        <path class="cls-1" d="m58.81,223.92c2.81.96,5.57,2.39,8.1,3.91,8.12,4.36,12.94,12.2,14.34,21.18.05.26-.35.38-.44.12-1.1-2.47-2.36-5.16-4.01-7.3-1.56-2.22-3.46-4.15-5.44-5.99-2.39-2.28-4.97-4.58-8-6.06-1.74-.88-3.77-1.72-5.59-2.13-2.58-.68-1.53-4.5,1.05-3.73h0Z"/>
        <path class="cls-1" d="m71.14,230.4c8.06,1.41,15.96,4.58,21.66,10.58,1.85,2.01,3.43,4.24,4.55,6.66.05.11,0,.25-.11.3-.1.05-.21.01-.28-.07-3.27-4.03-7.61-6.69-12.23-8.8-4.53-2.06-9.45-3.78-14.3-4.76-2.47-.58-1.82-4.23.71-3.9h0Z"/>
        <path class="cls-1" d="m100.23,246.32c6.59.9,13.62,5.03,15.42,11.81.61,2.38-2.63,3.61-3.8,1.48-2.9-5.12-6.59-9.81-11.75-12.86-.22-.11-.11-.47.13-.44h0Z"/>
        <path class="cls-3" d="m32.52,252.19s15.88,10.57,25.51,21.92c5.58,6.58,7.02,10.21,4.81,14.34-3.94,7.34-14.57.08-14.57.08"/>
        <path class="cls-1" d="m18.17,259.63c1.74,3.78,4,7.29,6.62,10.58,2.88,3.29,6.48,6.24,9.99,8.88.22.15.01.52-.23.39-3.08-1.51-6.1-3.18-8.85-5.24-3.73-2.83-7.67-5.73-10.01-9.93-.66-1.16-1.19-2.24-1.54-3.58-.51-2.66,3.02-3.58,4.03-1.1h0Z"/>
        <path class="cls-1" d="m17.43,281.64c3.84,1.35,7.53,3.41,11.22,5.03,1.22.57,2.47,1.04,3.87,1.72-1.41.59-2.97.76-4.47.59-4.42-.55-8.69-3.24-10.62-7.33h0Z"/>
        <path class="cls-1" d="m64.03,280.4c3.13,1.72,7.75,4.33,10.92,5.74,3.57,1.62,7.06,2.63,10.93,3.1.99.14,1.68,1.07,1.53,2.06-.38,2.65-6.46,1.96-8.35,1.54-6.54-1.68-12.13-6.4-15.04-12.44h0Z"/>
        <path class="cls-1" d="m31,250.55c6.98-5.91,19.1-14.65,28.52-10.51,5.92,2.3,10.17,8.07,10.97,14.25.03.28-.38.36-.45.08-.87-3.87-3.07-7.46-6.12-9.84-2.95-2.24-6.79-3.87-10.52-3.15-7.4,1.85-13.77,7.54-19.41,12.5-2.23,1.96-5.19-1.28-3-3.33h0Z"/>
        <path class="cls-1" d="m81.51,251.67c5.65.87,11.2,2.22,16.59,4.19,4.12,1.45,8.3,3.33,11.53,6.48,1.22,1.31,4.67,4.72,1.98,6.2-.76.35-1.63.1-2.12-.53-1.54-1.73-3.66-3.24-5.9-4.64-6.94-4.56-14.52-8.08-22.2-11.26-.24-.09-.15-.48.12-.44h0Z"/>
        <path class="cls-1" d="m64.91,243.48c4.4,1.36,8.12,4.18,11.5,7.21,1.13,1.01,2.13,2.14,3.1,3.29.05.06.04.16-.02.21-.06.05-.16.04-.21-.02-2.91-3.41-6.84-5.7-10.86-7.55-1.31-.68-2.67-1.3-3.97-1.95-.69-.34-.27-1.42.47-1.19h0Z"/>
        <path class="cls-3" d="m42.09,258.34s-1.43-5.53,7.49-6.99c5.41-.89,11.25.95,15.81,3.82,4.06,2.56,8.67,6.89,10.6,11.35-.24-.55,2.69-2.65,3.02-2.87,7.29-4.71,15.99,2.69,20.72,7.77,0,0,4.55-3.45,9.03,1.24"/>
        <path class="cls-1" d="m78.39,279.24c-1.57-3.93-3.05-8.73-4.83-12.48-1.33-2.78,2.61-4.91,4.22-2.3.77,1.31,1.07,2.58,1.35,3.81.49,2.41.44,4.9.25,7.33-.13,1.21-.27,2.4-.54,3.6-.04.22-.38.25-.45.03h0Z"/>
        <path class="cls-1" d="m103.48,281.11c-1.92-2.73-4.02-5.74-5.79-8.55-1.61-2.87,2.54-5.34,4.29-2.55,1.81,3.34,2.45,7.25,1.95,11-.03.21-.33.28-.44.1h0Z"/>
        <path class="cls-3" d="m75.27,364.65s8.65,5.8,22.88-1.93c14.23-7.74,22.66-22.97,22.66-22.97"/>
        <path class="cls-1" d="m38.31,338.04c2.6-.79,5.18-2,7.58-3.29,2.37-1.33,4.93-2.5,6.63-4.69.14-.2.47-.05.41.18-.76,2.97-3.35,5.04-5.73,6.7-2.49,1.59-5.05,2.85-7.72,4.15-.82.39-1.8.05-2.19-.77-.44-.9.06-2.01,1.02-2.28h0Z"/>
        <path class="cls-1" d="m48.3,340.16c1.7-.47,3.41-1.3,4.98-2.15,1.64-.77,3.37-1.65,4.35-3.26,1.25-.64-.83,2.52-1.09,2.79-1.72,2.58-4.34,4.12-6.97,5.67-.8.46-1.82.17-2.27-.63-.54-.92-.02-2.15,1.01-2.42h0Z"/>
        <path class="cls-1" d="m43.08,280.93c2.11,2.19,3.77,3.62,5.93,5.45,1.12,1.07.02,2.99-1.45,2.6-3.34-.86-5.31-4.8-4.48-8.05h0Z"/>
      </g>
      <g>
        <path class="cls-3" d="m57.81,403.81s8.77-7.56,16.7-19.09c9.43-13.73,22.91-21.57,22.91-21.57"/>
        <path class="cls-3" d="m188.08,367.41s2.99,4.33,3.78,15.96"/>
        <path class="cls-1" d="m172.71,421.08c3.84,3.52,6.42,8.23,7.61,13.27,0,0-4.2-.68-4.2-.68,2.26-4.74,3.11-10.37,3.93-15.6.81-5.51,1.23-11.11,1.51-16.72.28-5.62.36-11.14-.03-16.75-.35-5.59-.91-11.22-1.61-16.77-.18-1.25.71-2.41,1.97-2.57,1.25-.16,2.38.72,2.54,1.97,1.06,8.56,1.9,17.09,1.93,25.74-.2,11.51-.85,23.02-3.37,34.3-.75,3.04-1.4,5.75-2.93,8.67-.59,1.09-1.96,1.5-3.05.91-.63-.34-1.02-.93-1.15-1.59-.81-4.46-2.13-8.99-4.55-12.85-.7-.92.55-2.08,1.4-1.32h0Z"/>
        <path class="cls-1" d="m170.35,429.31c3.85,2.74,5.92,7.69,5.19,12.37-.43,2.27-1.52,6.79-4.64,5.31-.89-.5-1.31-1.5-1.1-2.45.63-2.31,1.4-4.54,1.24-6.97-.08-2.38-.97-4.86-2.15-6.95-.53-.91.63-1.93,1.46-1.31h0Z"/>
        <path class="cls-1" d="m134.39,459.69c5.55-6.31,5.66-13.28,4.01-21.11-.21-1.55,1.93-2.24,2.67-.88,4.93,7.96,3.44,19.24-3.7,25.42-2.33,1.86-5.11-1.37-2.98-3.44h0Z"/>
        <path class="cls-3" d="m176.75,368.02s1.71,28.64-6.7,45.21c-10.65,20.98-19.11,33.08-25.14,35.09"/>
        <path class="cls-1" d="m140.63,448.82c-.07-.04.07-.19.14-.3.15-.22.64-.86.81-1.08,2.26-2.63,3.74-5.8,4.48-9.27,0,0,.45-2.27.45-2.27.29-1-.06-3.39,1.51-3.22.39.07.69.36.78.72.21.81.4,1.64.57,2.48.79,5.24.19,11.46-3.87,15.37-.84.76-1.68,1.26-2.81,1.64-2.71,1.28-4.7-2.64-2.05-4.06h0Z"/>
        <path class="cls-1" d="m166.21,377.4c2.22-.43,3.63-1.28,4.36-3.18.66-1.82-.06-3.84-.5-5.94,3.52,1.23,4.99,6.3,2.08,8.92-1.52,1.62-4.5,1.76-5.94.2h0Z"/>
        <path class="cls-1" d="m157.61,371.56c-2.27-.9-4.52-1.2-6.55.15-4.8,1.98-6.51,8.75-4.02,13.26,2.72,5.59,5.6,11.82,8.76,17.11.41.7.53.94,1.01,1.26.84.4,2.03-.19,2.94-.79,3.58-2.55,5.51-6.55,6.86-10.98.53-1.76.85-3.5.75-5.06-.26-3.35-2.8-7.12-3.58-10.6-.58-1.74-1.4-3.38-2.55-4.96-.24-.33-.17-.79.16-1.03.25-.18.59-.18.84-.02,3.62,2.23,5.09,6.4,7.27,9.88,1.02,1.76,2.08,3.79,2.38,6.33.25,2.42-.16,4.67-.69,6.75-1.37,5.3-3.92,10.67-8.61,13.92-2.27,1.56-5.46,2.6-8.27,1.04-1.27-.64-2.37-2.06-2.94-3.12-2.11-3.5-3.93-7.16-5.65-10.78-.92-2-3.06-6.34-3.91-8.3-2.6-6.86.36-15.26,6.97-18.64,2.33-1.1,5.54-.8,7.62.65.95.73,3.59,2.76,2.16,3.85-.3.2-.65.21-.96.09h0Z"/>
        <path class="cls-1" d="m114.06,365.46c1.63-4.79,6.32-7.79,11.09-8.7,7.98-1.44,20.52-1.21,25.51,6.57,1.28,2.22,1.29,5.17-.23,7.32-.75.98-1.96,1.86-2.65,2.77-1.01,1.17-1.54,2.68-2.51,4.77-2.01,3.53-5.94,5-9.8,4.8-1.08-.04-2.63-.63-3.47-1.06-2.56-1.15-5.15-1.67-7.94-1.95-1.83-.26-3.53-.38-5.44-.1-1.53.19-3.72.42-5.38-.4-3.13-1.39-4.77-5.82-2.4-8.55.47-.73,3.12-2.74,3.57-1.5.05.19,0,.38-.11.52-.94,1.29-1.71,2.78-1.25,4.19.35,1.01,1.33,2.14,2.55,2.15,1.55.08,4.7-.77,7.01-.5.21,0,1.59.13,1.84.14,3.1.19,6.38.76,9.24,2.02,1.17.51,1.38.61,2.14.67,1.83.2,4.77-1.05,5.4-2.49.7-1.46,1.49-3.75,3.07-5.6.8-.96,1.6-1.7,2.42-2.46.21-.24.33-.65.37-1.03.15-2.66-3.79-4.69-6.19-5.48-3.45-1.16-7.24-1.37-10.9-1.29-3.59.1-7.3.42-10.44,2.29-1.54.91-3,2.19-4.01,3.64-.53.77-1.77.13-1.46-.74h0Z"/>
        <path class="cls-1" d="m150.22,418.51c2.51-5.6,1.75-11.84-1.02-17.25-1.95-3.92-4.13-8.25-6.23-12.04-.29-.48-.52-.89-.74-1.1,0,0-.04-.04-.1-.08,0,0-.59-.41-.59-.41-1.01-.63-2.56.04-3.42,1-.31.37-.21.25-.43,1.11-.16.99-.83,2.53-1.58,3.43-1.71,2.1-4,3.23-6.16,4.55-2.46,1.61-4.44,4.16-4.49,7.14-.01,1.81.34,3.34,1.58,4.8.33.41.76.91,1.18,1.54.82,1.17,1.28,2.63,1.52,4.03.8,3.54,2.21,10.93,6.3,11.24,1.53.17,3.05-.15,4.3-1.14,1.47-1.09,2.64-3.06,3.35-4.99.21-.56.85-.85,1.41-.63.47.18.74.65.7,1.12-.28,2.67-1.25,5.09-3.16,7.05-1.99,2.07-5.09,2.93-7.92,2.47-5.65-1.08-7.7-7.69-9.02-12.42,0,0-.42-1.72-.42-1.72-.1-.38-.23-1.03-.38-1.38-.27-.72-.66-1.19-1.5-2.14-.83-.92-1.78-2.35-2.2-3.71-2.42-7.42,1.7-13.51,8.06-17.04,1.18-.79,2.17-1.43,2.84-2.49.45-.92.33-1.95,1.09-3.25,2.2-3.71,7.4-5.73,11.39-3.2,0,0,.83.56.83.56.98.65,1.88,1.98,2.37,2.84,2.38,4.24,4.22,8.19,6.34,12.51,2.11,4.59,3.79,9.84,2.44,15.01-.8,2.62-2.31,5.07-4.96,6.36-1.16.49-2.02-.75-1.38-1.75h0Z"/>
        <path class="cls-3" d="m107.53,420.62s-6.54,8.5-.28,24.97c6.26,16.46,21.69,1.07,21.69,1.07,0,0,5.96-6.8,2.7-16.73-3.26-9.93-3.15-8.8-3.55-11.99-.57-4.55-5.99-6.74-12.84-3.01"/>
        <path class="cls-1" d="m96.12,431.85c.24-2.05,1.66-3.59,3.73-4.03,2.25-.51,4.55,1.53,4.1,3.78-.96-.38-1.63-.76-2.21-.82-2.01-.22-3.48.8-5.62,1.07h0Z"/>
        <path class="cls-3" d="m111.19,464.25s3.74-5.99-2.3-15.18"/>
        <path class="cls-1" d="m88.6,455.56c1.43-1.35,2.09-3.44,2.06-5.45,0-.54.43-.98.97-.98.41,0,.77.25.92.62.91,2.23,1,4.91.26,7.25-.15.7-1.06,2.26-1.42,2.97-.77,1.46-2.59,2.03-4.05,1.25-2.7-1.4-1.73-5.54,1.26-5.65h0Z"/>
        <path class="cls-1" d="m73.85,445.13c4.26-.13,8.94-1.07,12.36-3.8.41-.36,1.04-.32,1.38.11,1.3,1.55-4.82,5.2-6.09,5.77-2.35,1.12-4.62,1.92-7.22,2.45-1.24.24-2.44-.57-2.68-1.81-.29-1.39.83-2.74,2.25-2.72h0Z"/>
        <path class="cls-1" d="m87.74,448.29c-.83-1.55-2.67-2.35-4.39-2.24-1.83.01-1.88-2.72-.04-2.77,2.57.3,5.06,2.02,5.74,4.61.2.85-.99,1.2-1.31.4h0Z"/>
        <path class="cls-1" d="m89.42,441.07c1.76-4.05,4.08-7.9,5.44-12.07.31-1.66-1.42-2.14-3.02-2.25-1.99-.13-4.31.17-6.81.32-.91.09-1.38-1.18-.65-1.71,3.24-2.48,8.2-4.15,12.21-1.62,2.45,1.51,3.29,4.85,1.99,7.43-1.81,4.11-4.43,7.71-7.28,11.12-.83.98-2.43-.07-1.87-1.21h0Z"/>
        <path class="cls-1" d="m57.99,435.24c1.33-3.84,4.84-6.41,8.47-7.64,3.86-1.2,7.4-1.52,10.97-3.09-.8.42-1.15,2.06.22,2.61.13.05.28.08.37.08,0,0-.2-.03-.2-.03-6.78-.86-9.19-9.77-2.21-12.3.68-.18,3.12-.83,3.11.2-.02.21-.17.39-.37.44-4.41.95-5.84,6.16-1.17,7.7.62.22,1.21.12,1.84.35.97.36,1.6,1.35,1.55,2.33-.01.5-.2,1.05-.55,1.46-.31.41-.93.7-.88.68-2.08,1.13-4.46,1.91-6.66,2.55-4.04,1.08-8.53,2.16-10.24,6.22-1.13,2.72-5.16,1.25-4.27-1.56h0Z"/>
        <path class="cls-1" d="m78.11,409.6c2.97-3.61,7.77-5.38,12.39-4.76,3,.37,2.57,4.79-.45,4.57-1.85-.54-3.71-1.12-5.69-.76-1.81.22-3.71,1.01-5.17,2.1-.73.55-1.66-.45-1.07-1.14h0Z"/>
        <path class="cls-3" d="m94.96,425.29c2.99-.4,5.96-1.3,8.74-2.45,3.42-1.41,5.13-3.68,10-6.93,2.68-1.79,6.17-3.9,5.36-7.39-.81-3.49-3.17-4.31-7.15-4.14"/>
        <path class="cls-3" d="m108.13,404.44c3.95-.1,8.04.05,11.78-1.44,3.67-1.46,5.04-5.08,8.03-7.32,2.51-1.87,5.9-2.72,6.82-6.1.88-3.25,1.22-8.74-3.02-9.98-11.47-3.36-24.17-1-32.22,6.33-2.47,2.24-4.54,4.82-6.24,7.67-1.82,3.06-3.62,6.19-4.55,9.66-.2.75-.36,1.54-.17,2.29.27,1.1,1.34,1.65,2.4,1.7,1.83.09,3.79-.91,5.56-1.33,1.81-.43,3.65-.74,5.5-.97,2.02-.26,4.07-.45,6.11-.51Z"/>
        <path class="cls-1" d="m125.62,359.4c-2.88-2.48-4.9-7.14-2-10.32.65-.84,1.98,0,1.51.95-.32.64-.63,1.31-.6,1.95,0,1.93,1.71,3.58,3.23,4.54,2.22,1.42-.12,4.59-2.13,2.88h0Z"/>
      </g>
      <g>
        <path class="cls-3" d="m131.58,350.28c-7.11-6.17-13.13-13.65-17.68-21.73-11.97-21.29-10.08-41.4-1.7-63.51,17.46-46.07,71.73-70.68,113.7-38.58,21.46,16.42,28.72,42.33,30.35,68.17,2.14,33.95-20.03,58.56-51.62,68.58-12.29,3.89-25.43,5.02-38.21,3.36-13.02-1.68-24.98-7.73-34.85-16.29Z"/>
        <path class="cls-3" d="m118.53,292.99c.26-31.28,24.33-53.79,53.49-60.63,35.85-8.41,61.6,12.4,69.93,47.05,5.54,23.02-4.91,47.6-23.22,61.96-37.7,29.57-100.61-.15-100.2-48.38Z"/>
        <ellipse class="cls-3" cx="156.48" cy="297.05" rx="10.45" ry="9.41" transform="translate(-118.14 103.89) rotate(-27.1)"/>
        <ellipse class="cls-3" cx="204.23" cy="282.23" rx="10.31" ry="8.72" transform="translate(-70.92 68.56) rotate(-16.28)"/>
      </g>
    </g>
  </g>
</svg>